<?xml version="1.0" encoding="UTF-8" standalone="no"?>
<!-- Created with Inkscape (http://www.inkscape.org/) -->

<svg
   width="190mm"
   height="64mm"
   viewBox="0 0 190 64"
   version="1.1"
   id="svg1"
   inkscape:version="1.3 (0e150ed, 2023-07-21)"
   sodipodi:docname="logo_5.svg"
   xmlns:inkscape="http://www.inkscape.org/namespaces/inkscape"
   xmlns:sodipodi="http://sodipodi.sourceforge.net/DTD/sodipodi-0.dtd"
   xmlns:xlink="http://www.w3.org/1999/xlink"
   xmlns="http://www.w3.org/2000/svg"
   xmlns:svg="http://www.w3.org/2000/svg">
  <sodipodi:namedview
     id="namedview1"
     pagecolor="#ffffff"
     bordercolor="#000000"
     borderopacity="0.25"
     inkscape:showpageshadow="2"
     inkscape:pageopacity="0.0"
     inkscape:pagecheckerboard="0"
     inkscape:deskcolor="#d1d1d1"
     inkscape:document-units="mm"
     inkscape:zoom="0.645174"
     inkscape:cx="404.54203"
     inkscape:cy="201.49603"
     inkscape:window-width="1512"
     inkscape:window-height="843"
     inkscape:window-x="1"
     inkscape:window-y="38"
     inkscape:window-maximized="0"
     inkscape:current-layer="layer1" />
  <defs
     id="defs1">
    <rect
       x="243.34521"
       y="215.44576"
       width="435.54141"
       height="167.3967"
       id="rect2" />
    <rect
       x="301.2485"
       y="138.53033"
       width="477.16003"
       height="244.07726"
       id="rect29" />
    <rect
       x="300.86658"
       y="158.248"
       width="477.48157"
       height="245.18671"
       id="rect28" />
    <linearGradient
       id="linearGradient27"
       inkscape:collect="always">
      <stop
         style="stop-color:#bfe1fb;stop-opacity:1;"
         offset="0"
         id="stop27" />
      <stop
         style="stop-color:#bfe1fb;stop-opacity:0;"
         offset="1"
         id="stop28" />
    </linearGradient>
    <linearGradient
       id="linearGradient25"
       inkscape:collect="always">
      <stop
         style="stop-color:#c3fbbf;stop-opacity:1;"
         offset="0"
         id="stop25" />
      <stop
         style="stop-color:#c3fbbf;stop-opacity:0;"
         offset="1"
         id="stop26" />
    </linearGradient>
    <linearGradient
       id="linearGradient23"
       inkscape:collect="always">
      <stop
         style="stop-color:#fafbbf;stop-opacity:1;"
         offset="0"
         id="stop23" />
      <stop
         style="stop-color:#fafbbf;stop-opacity:0;"
         offset="1"
         id="stop24" />
    </linearGradient>
    <rect
       x="102.64169"
       y="182.04375"
       width="588.73724"
       height="317.60825"
       id="rect1" />
    <linearGradient
       inkscape:collect="always"
       xlink:href="#linearGradient23"
       id="linearGradient24"
       x1="50.492085"
       y1="66.973679"
       x2="78.71917"
       y2="66.973679"
       gradientUnits="userSpaceOnUse" />
    <linearGradient
       inkscape:collect="always"
       xlink:href="#linearGradient25"
       id="linearGradient26"
       x1="50.492085"
       y1="66.973679"
       x2="78.71917"
       y2="66.973679"
       gradientUnits="userSpaceOnUse" />
    <linearGradient
       inkscape:collect="always"
       xlink:href="#linearGradient27"
       id="linearGradient28"
       x1="50.492085"
       y1="66.973679"
       x2="78.71917"
       y2="66.973679"
       gradientUnits="userSpaceOnUse" />
    <rect
       x="301.2485"
       y="138.53033"
       width="477.16003"
       height="244.07726"
       id="rect29-4" />
  </defs>
  <g
     inkscape:label="Слой 1"
     inkscape:groupmode="layer"
     id="layer1">
    <path
       sodipodi:type="star"
       style="fill:url(#linearGradient24);stroke-width:0.264583"
       id="path23"
       inkscape:flatsided="true"
       sodipodi:sides="3"
       sodipodi:cx="62.859528"
       sodipodi:cy="64.411613"
       sodipodi:r1="16.66688"
       sodipodi:r2="8.3334389"
       sodipodi:arg1="1.7818897"
       sodipodi:arg2="2.8290872"
       inkscape:rounded="0"
       inkscape:randomized="0"
       d="M 59.367331,80.708528 50.492084,53.238825 78.719168,59.287487 Z"
       inkscape:transform-center-x="-1.762185"
       inkscape:transform-center-y="2.562063"
       transform="matrix(1.0092168,0,0,1,-39.513565,-43.489)" />
    <path
       sodipodi:type="star"
       style="fill:url(#linearGradient28);stroke-width:0.264583"
       id="path23-5"
       inkscape:flatsided="true"
       sodipodi:sides="3"
       sodipodi:cx="62.859528"
       sodipodi:cy="64.411613"
       sodipodi:r1="16.66688"
       sodipodi:r2="8.3334389"
       sodipodi:arg1="1.7818897"
       sodipodi:arg2="2.8290872"
       inkscape:rounded="0"
       inkscape:randomized="0"
       d="M 59.367331,80.708528 50.492084,53.238825 78.719168,59.287487 Z"
       inkscape:transform-center-x="-1.7621844"
       inkscape:transform-center-y="2.562063"
       transform="matrix(1.0092168,0,0,1,-18.870347,-27.477284)" />
    <path
       sodipodi:type="star"
       style="fill:url(#linearGradient26);stroke-width:0.264583"
       id="path23-51"
       inkscape:flatsided="true"
       sodipodi:sides="3"
       sodipodi:cx="62.859528"
       sodipodi:cy="64.411613"
       sodipodi:r1="16.66688"
       sodipodi:r2="8.3334389"
       sodipodi:arg1="1.7818897"
       sodipodi:arg2="2.8290872"
       inkscape:rounded="0"
       inkscape:randomized="0"
       d="M 59.367331,80.708528 50.492084,53.238825 78.719168,59.287487 Z"
       inkscape:transform-center-x="-1.7621852"
       inkscape:transform-center-y="2.562063"
       transform="matrix(1.0092168,0,0,1,-29.532317,-35.857474)" />
    <path
       d="m 95.129598,39.203585 q 0,1.648481 -0.784033,3.259066 -0.764908,1.610587 -2.160864,2.728523 -1.529817,1.212676 -3.575947,1.894806 -2.02701,0.68213 -4.895416,0.68213 -3.078755,0 -5.545586,-0.568441 -2.447705,-0.568442 -4.991028,-1.686378 V 40.81417 h 0.267719 q 2.160867,1.781119 4.991028,2.74747 2.83016,0.966351 5.316113,0.966351 3.518578,0 5.469096,-1.307417 1.969639,-1.307418 1.969639,-3.486444 0,-1.875859 -0.937012,-2.766417 -0.917891,-0.890561 -2.811039,-1.38321 -1.434204,-0.378963 -3.117003,-0.625287 -1.663675,-0.246325 -3.537702,-0.625287 -3.786297,-0.795817 -5.622075,-2.709572 -1.816658,-1.932704 -1.816658,-5.021238 0,-3.54329 3.021389,-5.798111 3.021388,-2.273769 7.668205,-2.273769 3.002267,0 5.507342,0.568444 2.505074,0.568442 4.436468,1.402157 v 4.433848 h -0.267716 q -1.625432,-1.364261 -4.283489,-2.254822 -2.638933,-0.909505 -5.411726,-0.909505 -3.040512,0 -4.895415,1.250572 -1.835779,1.250572 -1.835779,3.221172 0,1.76217 0.917888,2.766417 0.917891,1.004248 3.23174,1.534793 1.223853,0.265274 3.480332,0.644236 2.25648,0.37896 3.824543,0.77687 3.17437,0.833715 4.780678,2.520093 1.606308,1.68638 1.606308,4.718071 z m 27.517572,-3.278018 q 0,3.069587 -0.68842,5.362305 -0.66929,2.273768 -2.21823,3.789613 -1.47245,1.440053 -3.44209,2.103237 -1.96964,0.663181 -4.58945,0.663181 -2.67718,0 -4.66594,-0.701077 -1.98876,-0.70108 -3.34647,-2.065341 -1.54894,-1.553741 -2.23736,-3.751717 -0.66929,-2.197976 -0.66929,-5.400201 V 19.042838 h 3.78629 v 17.07221 q 0,2.292718 0.30596,3.619082 0.32509,1.326364 1.07088,2.406404 0.8414,1.231625 2.2756,1.856912 1.45332,0.625284 3.48033,0.625284 2.04613,0 3.48033,-0.606337 1.43421,-0.625285 2.29473,-1.875859 0.74579,-1.08004 1.05175,-2.46325 0.32508,-1.402157 0.32508,-3.467494 V 19.042838 h 3.7863 z m 28.70319,2.652731 q 0,2.103236 -0.80315,3.713821 -0.80316,1.610585 -2.16087,2.652728 -1.60631,1.250575 -3.5377,1.78112 -1.91227,0.530545 -4.87629,0.530545 H 129.87556 V 19.042838 h 8.43311 q 3.117,0 4.66594,0.227377 1.54894,0.227378 2.96402,0.947404 1.56807,0.814766 2.2756,2.103234 0.70755,1.269521 0.70755,3.050641 0,2.008494 -1.03263,3.4296 -1.03263,1.402157 -2.75367,2.254819 v 0.151585 q 2.88753,0.587391 4.5512,2.520093 1.66368,1.913755 1.66368,4.850707 z M 144.9825,25.864143 q 0,-1.023194 -0.34421,-1.724274 -0.34421,-0.70108 -1.10912,-1.136886 -0.89876,-0.511595 -2.17999,-0.625284 -1.28122,-0.132638 -3.17437,-0.132638 h -4.51296 v 8.147671 h 4.89542 q 1.77841,0 2.83016,-0.170534 1.05175,-0.189479 1.95051,-0.757923 0.89877,-0.568441 1.2621,-1.459 0.38246,-0.909508 0.38246,-2.141132 z m 2.42858,12.86574 q 0,-1.705327 -0.51631,-2.709574 -0.51631,-1.004248 -1.87403,-1.705327 -0.91789,-0.473702 -2.23736,-0.606338 -1.30034,-0.151585 -3.17436,-0.151585 h -5.94717 v 10.49723 h 5.01015 q 2.48596,0 4.07314,-0.246325 1.58719,-0.265273 2.60069,-0.947404 1.07087,-0.738973 1.56806,-1.686377 0.49719,-0.947404 0.49719,-2.4443 z m 29.4681,-19.687045 -10.0203,15.840585 v 12.373089 h -3.7863 V 35.281333 L 153.01403,19.042838 h 4.18788 l 7.78294,12.619415 7.85944,-12.619415 z"
       id="path2"
       style="font-size:146.667px;font-family:'Noto Sans Osmanya';-inkscape-font-specification:'Noto Sans Osmanya';font-variation-settings:normal;white-space:pre;opacity:1;vector-effect:none;fill:#e4fbbf;fill-opacity:1;stroke-width:0.264583;stroke-linecap:butt;stroke-linejoin:miter;stroke-miterlimit:4;stroke-dasharray:none;stroke-dashoffset:0;stroke-opacity:1;-inkscape-stroke:none;stop-color:#000000;stop-opacity:1"
       aria-label="SUBY" />
  </g>
</svg>
